mtllib sphere.mtl
o ModelData
v 1 -0.0625 -1
v -1 -0.0625 -1
v -1 0.0625 1
v 1 0.0625 1
v -1 -0.0625 1
v -1 0.0625 -1
v 1 0.0625 -1
v 1 -0.0625 1
vt 1 0
vt 0 0
vt 0 1
vt 1 1
vt 0 1
vt 0 0
vt 1 0
vt 1 1
vn 0 -1 0
vn 0 -1 0
vn 0 0 -1
vn 0 0 -1
vn 0 1 0
vn 0 1 0
vn 0 0 1
vn 0 0 1
vn -1 0 0
vn -1 0 0
vn 1 0 0
vn 1 0 0
usemtl Default_Smoothing
s off
f 5/5/1 2/2/1 8/8/1
f 1/1/2 8/8/2 2/2/2
f 2/2/3 6/6/3 1/1/3
f 7/7/4 1/1/4 6/6/4
f 6/6/5 3/3/5 4/4/5
f 4/4/6 7/7/6 6/6/6
f 3/3/7 5/5/7 8/8/7
f 8/8/8 4/4/8 3/3/8
f 5/5/9 3/3/9 6/6/9
f 2/2/10 5/5/10 6/6/10
f 8/8/11 7/7/11 4/4/11
f 1/1/12 7/7/12 8/8/12
